<svg xmlns="http://www.w3.org/2000/svg" xmlns:xlink="http://www.w3.org/1999/xlink" width="1920" height="1080" viewBox="0 0 1920 1080">
  <defs>
    <linearGradient id="linear-gradient" x1="0.5" y1="1" x2="0.5" gradientUnits="objectBoundingBox">
      <stop offset="0" stop-color="gray" stop-opacity="0.251"/>
      <stop offset="0.54" stop-color="gray" stop-opacity="0.122"/>
      <stop offset="1" stop-color="gray" stop-opacity="0.102"/>
    </linearGradient>
    <clipPath id="clip-path">
      <rect id="_Rectangle_" data-name="&lt;Rectangle&gt;" width="143.79" height="96.93" transform="translate(202.54 262.18)" fill="#3f3e4d"/>
    </clipPath>
    <clipPath id="clip-path-2">
      <rect id="_Rectangle_2" data-name="&lt;Rectangle&gt;" width="143.79" height="96.93" transform="translate(202.54 468.88)" fill="#fff"/>
    </clipPath>
    <linearGradient id="linear-gradient-6" x1="0.518" y1="1.092" x2="0.518" y2="-0.251" xlink:href="#linear-gradient"/>
    <linearGradient id="linear-gradient-7" x1="0.6" y1="0.66" x2="0.6" y2="0.086" xlink:href="#linear-gradient"/>
    <linearGradient id="linear-gradient-8" x1="0.5" y1="1" x2="0.5" gradientUnits="objectBoundingBox">
      <stop offset="0" stop-color="#b3b3b3" stop-opacity="0.251"/>
      <stop offset="0.54" stop-color="#b3b3b3" stop-opacity="0.102"/>
      <stop offset="1" stop-color="#b3b3b3" stop-opacity="0.051"/>
    </linearGradient>
    <linearGradient id="linear-gradient-9" x1="0.5" y1="0.999" x2="0.5" gradientUnits="objectBoundingBox">
      <stop offset="0" stop-opacity="0.122"/>
      <stop offset="0.55" stop-opacity="0.09"/>
      <stop offset="1" stop-opacity="0.02"/>
    </linearGradient>
    <linearGradient id="linear-gradient-10" x1="0.5" y1="1" x2="0.5" y2="0" xlink:href="#linear-gradient-9"/>
    <clipPath id="clip-Web_1920_1">
      <rect width="1920" height="1080"/>
    </clipPath>
  </defs>
  <g id="Web_1920_1" data-name="Web 1920 – 1" clip-path="url(#clip-Web_1920_1)">
    <rect width="1920" height="1080" fill="#fff"/>
    <g id="undraw_file_searching_duff" transform="translate(539 112.017)">
      <g id="Group_1" data-name="Group 1" opacity="0.5">
        <rect id="Rectangle_1" data-name="Rectangle 1" width="448.44" height="602.6" transform="translate(154.15 130.21)" fill="url(#linear-gradient)"/>
      </g>
      <rect id="Rectangle_2" data-name="Rectangle 2" width="434.43" height="581.58" transform="translate(159.99 138.39)" fill="#f2f2f2"/>
      <rect id="Rectangle_3" data-name="Rectangle 3" width="149.48" height="4.67" transform="translate(193.86 162.91)" fill="#e0e0e0"/>
      <rect id="Rectangle_4" data-name="Rectangle 4" width="149.48" height="4.67" transform="translate(193.86 183.93)" fill="#949494" opacity="0.7"/>
      <rect id="Rectangle_5" data-name="Rectangle 5" width="149.48" height="4.67" transform="translate(365.53 162.91)" fill="#e0e0e0"/>
      <rect id="Rectangle_6" data-name="Rectangle 6" width="149.48" height="4.67" transform="translate(388.88 296.05)" fill="#e0e0e0"/>
      <rect id="Rectangle_7" data-name="Rectangle 7" width="149.48" height="4.67" transform="translate(392.39 308.89)" fill="#e0e0e0"/>
      <rect id="Rectangle_8" data-name="Rectangle 8" width="149.48" height="4.67" transform="translate(399.4 321.74)" fill="#e0e0e0"/>
      <rect id="Rectangle_9" data-name="Rectangle 9" width="149.48" height="4.67" transform="translate(388.88 502.75)" fill="#e0e0e0"/>
      <rect id="Rectangle_10" data-name="Rectangle 10" width="149.48" height="4.67" transform="translate(392.39 515.6)" fill="#e0e0e0"/>
      <rect id="Rectangle_11" data-name="Rectangle 11" width="149.48" height="4.67" transform="translate(399.4 528.44)" fill="#e0e0e0"/>
      <g id="Group_2" data-name="Group 2" opacity="0.5">
        <rect id="Rectangle_12" data-name="Rectangle 12" width="158.82" height="161.16" transform="translate(195.03 248.16)" fill="url(#linear-gradient)"/>
      </g>
      <rect id="Rectangle_13" data-name="Rectangle 13" width="156.32" height="154.15" transform="translate(196.03 251.67)" fill="#f5f5f5"/>
      <g id="Group_3" data-name="Group 3" opacity="0.5">
        <rect id="Rectangle_14" data-name="Rectangle 14" width="145.8" height="100.43" transform="translate(201.54 261.01)" fill="url(#linear-gradient)"/>
      </g>
      <rect id="_Rectangle_3" data-name="&lt;Rectangle&gt;" width="143.79" height="96.93" transform="translate(202.54 262.18)" fill="#fff"/>
      <g id="Group_4" data-name="Group 4" clip-path="url(#clip-path)">
        <path id="Path_1" data-name="Path 1" d="M190.35,355.61l36.21-56.06,15.18,24.52,32.7-33.86,28.03,33.86,24.52-50.21,63.06,100.43-204.37-7.01Z" fill="#3f3e4d" opacity="0.4"/>
        <circle id="Ellipse_1" data-name="Ellipse 1" cx="10.51" cy="10.51" r="10.51" transform="translate(207.87 265.68)" fill="#3f3e4d" opacity="0.4"/>
      </g>
      <g id="Group_5" data-name="Group 5" opacity="0.5">
        <rect id="Rectangle_15" data-name="Rectangle 15" width="158.82" height="161.16" transform="translate(195.03 454.87)" fill="url(#linear-gradient)"/>
      </g>
      <rect id="Rectangle_16" data-name="Rectangle 16" width="156.32" height="154.15" transform="translate(196.03 458.37)" fill="#f5f5f5"/>
      <g id="Group_6" data-name="Group 6" opacity="0.5">
        <rect id="Rectangle_17" data-name="Rectangle 17" width="145.8" height="100.43" transform="translate(201.54 467.72)" fill="url(#linear-gradient)"/>
      </g>
      <rect id="_Rectangle_4" data-name="&lt;Rectangle&gt;" width="143.79" height="96.93" transform="translate(202.54 468.88)" fill="#fff"/>
      <g id="Group_7" data-name="Group 7" clip-path="url(#clip-path-2)">
        <path id="Path_2" data-name="Path 2" d="M190.35,562.31l36.21-56.06,15.18,24.53,32.7-33.87,28.03,33.87,24.52-50.22,63.06,100.43-204.37-7Z" fill="#bdbdbd" opacity="0.4"/>
        <circle id="Ellipse_2" data-name="Ellipse 2" cx="10.51" cy="10.51" r="10.51" transform="translate(207.87 472.39)" fill="#bdbdbd" opacity="0.4"/>
      </g>
      <g id="Group_8" data-name="Group 8" opacity="0.5">
        <rect id="Rectangle_18" data-name="Rectangle 18" width="602.6" height="448.44" transform="translate(219.986 691.478) rotate(-78.76)" fill="url(#linear-gradient-6)"/>
      </g>
      <rect id="Rectangle_19" data-name="Rectangle 19" width="581.58" height="434.43" transform="translate(228.214 680.02) rotate(-78.76)" fill="#fff"/>
      <rect id="Rectangle_20" data-name="Rectangle 20" width="308.31" height="4.67" transform="translate(367.319 142.078) rotate(11.24)" fill="#e0e0e0"/>
      <rect id="Rectangle_21" data-name="Rectangle 21" width="308.31" height="4.67" transform="translate(281.275 575.059) rotate(11.24)" fill="#e0e0e0"/>
      <rect id="Rectangle_22" data-name="Rectangle 22" width="238.24" height="4.67" transform="translate(276.03 601.394) rotate(11.24)" fill="#e0e0e0"/>
      <rect id="Rectangle_23" data-name="Rectangle 23" width="88.75" height="4.67" transform="translate(270.797 627.747) rotate(11.24)" fill="#949494" opacity="0.7"/>
      <rect id="Rectangle_24" data-name="Rectangle 24" width="154.15" height="4.67" transform="translate(362.075 168.428) rotate(11.24)" fill="#949494" opacity="0.7"/>
      <rect id="Rectangle_25" data-name="Rectangle 25" width="277.94" height="4.67" transform="translate(356.851 194.77) rotate(11.24)" fill="#e0e0e0"/>
      <rect id="Rectangle_26" data-name="Rectangle 26" width="67.73" height="4.67" transform="translate(351.611 221.12) rotate(11.24)" fill="#949494" opacity="0.7"/>
      <rect id="Rectangle_27" data-name="Rectangle 27" width="308.31" height="4.67" transform="translate(346.38 247.465) rotate(11.24)" fill="#e0e0e0"/>
      <g id="Group_9" data-name="Group 9" opacity="0.5">
        <rect id="Rectangle_28" data-name="Rectangle 28" width="158.82" height="276.77" transform="translate(342.067 514.518) rotate(-78.76)" fill="url(#linear-gradient-7)"/>
      </g>
      <rect id="Rectangle_29" data-name="Rectangle 29" width="273.27" height="155.32" transform="translate(374.561 360.231) rotate(11.24)" fill="#fff"/>
      <rect id="Rectangle_30" data-name="Rectangle 30" width="308.31" height="4.67" transform="translate(341.145 273.818) rotate(11.24)" fill="#e0e0e0"/>
      <rect id="Rectangle_31" data-name="Rectangle 31" width="33.87" height="113.28" transform="translate(398.533 386.426) rotate(11.24)" fill="#b1b1b1"/>
      <rect id="Rectangle_32" data-name="Rectangle 32" width="33.87" height="75.91" transform="translate(450.809 434.919) rotate(11.24)" fill="#b1b1b1"/>
      <rect id="Rectangle_33" data-name="Rectangle 33" width="33.87" height="40.87" transform="translate(503.55 481.121) rotate(11.24)" fill="#b1b1b1"/>
      <rect id="Rectangle_34" data-name="Rectangle 34" width="33.87" height="82.92" transform="translate(571.308 451.722) rotate(11.24)" fill="#b1b1b1"/>
      <path id="Path_3" data-name="Path 3" d="M880.45,410.55a155.89,155.89,0,0,0-223.11-1.68c-59,59.48-60,156.33-2.29,217.07A155.89,155.89,0,0,0,854.95,648L967.64,765.21a7.59,7.59,0,0,0,10.73.21l28.08-27a7.59,7.59,0,0,0,.21-10.73L894,610.49a155.9,155.9,0,0,0-13.55-199.94ZM845.35,599a111.5,111.5,0,1,1,3.1-157.66A111.5,111.5,0,0,1,845.35,599Z" transform="translate(-179 -60.54)" fill="url(#linear-gradient-8)"/>
      <path id="Path_4" data-name="Path 4" d="M685.49,487.6c-12.54,0-12.56,19.49,0,19.49S698.05,487.6,685.49,487.6Z" transform="translate(-179 -60.54)" fill="url(#linear-gradient-9)"/>
      <path id="Path_5" data-name="Path 5" d="M772.9,425.17c-33.75-.76-64.46,16.17-80.79,41.73-5.33,8.34,9.8,15.71,15.1,7.41,13.52-21.16,39.21-34.6,67-33.9,29.12.73,55.62,17.39,69.65,40.51,5.32,8.77,19.27.8,14-7.92C840.8,445,807.76,426,772.9,425.17Z" transform="translate(-179 -60.54)" fill="url(#linear-gradient-10)"/>
      <path id="Path_6" data-name="Path 6" d="M892.68,404.63a155.89,155.89,0,0,0-223.11-1.68c-59,59.48-60,156.33-2.29,217.07a155.89,155.89,0,0,0,199.9,22.05L979.86,759.29a7.59,7.59,0,0,0,10.73.21l28.08-27a7.59,7.59,0,0,0,.21-10.73L906.19,604.56a155.9,155.9,0,0,0-13.51-199.93ZM857.58,593a111.5,111.5,0,1,1,3.1-157.66A111.5,111.5,0,0,1,857.58,593Z" transform="translate(-179 -60.54)" fill="#9d9d9d"/>
      <path id="Path_7" data-name="Path 7" d="M697.72,481.67c-12.54,0-12.56,19.49,0,19.49S710.28,481.67,697.72,481.67Z" transform="translate(-179 -60.54)" fill="#9d9d9d"/>
      <path id="Path_8" data-name="Path 8" d="M785.13,419.25c-33.75-.76-64.46,16.17-80.79,41.73-5.33,8.34,9.8,15.71,15.1,7.41,13.52-21.16,39.21-34.6,67-33.9,29.12.73,55.62,17.39,69.65,40.51,5.32,8.77,19.27.8,14-7.92C853,439,820,420,785.13,419.25Z" transform="translate(-179 -60.54)" fill="#9d9d9d"/>
      <rect id="Rectangle_35" data-name="Rectangle 35" width="3.5" height="19.85" transform="translate(121.45 663.91)" fill="#c2c2c2" stroke="#c2c2c2" stroke-width="1"/>
      <rect id="Rectangle_36" data-name="Rectangle 36" width="3.5" height="19.85" transform="translate(133.13 672.08) rotate(90)" fill="#c2c2c2"/>
      <path id="Path_9" data-name="Path 9" d="M750.87,68.49a4.29,4.29,0,0,1-2.39-5.19,2.059,2.059,0,0,0,.09-.48h0a2.15,2.15,0,0,0-3.87-1.43h0a2.061,2.061,0,0,0-.24.42,4.29,4.29,0,0,1-5.19,2.39,2.06,2.06,0,0,0-.48-.09h0A2.15,2.15,0,0,0,737.38,68h0a2.058,2.058,0,0,0,.42.24,4.29,4.29,0,0,1,2.39,5.19,2.059,2.059,0,0,0-.09.48h0a2.15,2.15,0,0,0,3.9,1.41h0a2.058,2.058,0,0,0,.24-.42,4.29,4.29,0,0,1,5.19-2.39,2.061,2.061,0,0,0,.48.09h0a2.15,2.15,0,0,0,1.43-3.87h0a2.061,2.061,0,0,0-.47-.24Z" transform="translate(-179 -60.54)" fill="#c2c2c2"/>
      <path id="Path_10" data-name="Path 10" d="M316.44,215.64a4.29,4.29,0,0,1-2.39-5.19,2.061,2.061,0,0,0,.09-.48h0a2.15,2.15,0,0,0-3.87-1.43h0a2.06,2.06,0,0,0-.24.42,4.29,4.29,0,0,1-5.19,2.39,2.06,2.06,0,0,0-.48-.09h0a2.15,2.15,0,0,0-1.43,3.87h0a2.06,2.06,0,0,0,.42.24,4.29,4.29,0,0,1,2.39,5.19,2.059,2.059,0,0,0-.09.48h0a2.15,2.15,0,0,0,3.87,1.43h0a2.06,2.06,0,0,0,.24-.42,4.29,4.29,0,0,1,5.19-2.39,2.061,2.061,0,0,0,.48.09h0a2.15,2.15,0,0,0,1.43-3.87h0A2.06,2.06,0,0,0,316.44,215.64Z" transform="translate(-179 -60.54)" fill="#c2c2c2"/>
      <path id="Path_11" data-name="Path 11" d="M934.22,822.9a4.29,4.29,0,0,1-2.39-5.19,2.055,2.055,0,0,0,.09-.48h0a2.15,2.15,0,0,0-3.87-1.43h0a2.061,2.061,0,0,0-.24.42,4.29,4.29,0,0,1-5.19,2.39,2.058,2.058,0,0,0-.48-.09h0a2.15,2.15,0,0,0-1.43,3.87h0a2.06,2.06,0,0,0,.42.24,4.29,4.29,0,0,1,2.39,5.19,2.059,2.059,0,0,0-.09.48h0a2.15,2.15,0,0,0,3.87,1.43h0a2.058,2.058,0,0,0,.24-.42,4.29,4.29,0,0,1,5.19-2.39,2.062,2.062,0,0,0,.48.09h0a2.15,2.15,0,0,0,1.43-3.87h0A2.059,2.059,0,0,0,934.22,822.9Z" transform="translate(-179 -60.54)" fill="#c2c2c2"/>
      <circle id="Ellipse_3" data-name="Ellipse 3" cx="7.01" cy="7.01" r="7.01" transform="translate(314.14 68.32)" fill="#c2c2c2"/>
      <circle id="Ellipse_4" data-name="Ellipse 4" cx="7.01" cy="7.01" r="7.01" transform="translate(816.3 155.9)" fill="#c2c2c2"/>
      <circle id="Ellipse_5" data-name="Ellipse 5" cx="7.01" cy="7.01" r="7.01" transform="translate(776.6 364.94)" fill="#c2c2c2"/>
      <circle id="Ellipse_6" data-name="Ellipse 6" cx="7.01" cy="7.01" r="7.01" transform="translate(0 21.6)" fill="#c2c2c2" opacity="0.5"/>
    </g>
  </g>
</svg>
