<svg version="1.1" width="100" height="40" class="SideBar__logo" xmlns="http://www.w3.org/2000/svg" xmlns:xlink="http://www.w3.org/1999/xlink" x="0px" y="0px"
	 viewBox="0 0 818 263" style="enable-background:new 0 0 818 263;" xml:space="preserve">
<style type="text/css">
	.st1{fill:#FFDC15;}
	.st2{fill:#FBC804;}
	.st4{fill:#F3C104;}
  .SideBar__logo__lyrics{fill:black;}
</style>
	<path class="SideBar__logo__lyrics is-visible" d="M482.1,193.9c-12.2,9.7-25.2,14.6-38.8,14.6c-15.1,0-28.1-5.4-38.5-16c-10.5-10.6-15.8-23.9-15.8-39.4
		c0-15.5,5.3-28.8,15.8-39.4c10.5-10.6,23.4-16,38.5-16c7,0,13.4,1.2,19.1,3.4c5.7,2.3,12,5.7,18.7,10.1l0.1,0l12.8-19.2l-0.1,0
		c-14.7-11.1-31.7-16.8-50.5-16.8c-14.8,0-28.6,3.5-40.8,10.3c-12.2,6.8-21.9,16.3-28.9,28.1c-7,11.8-10.5,25.1-10.5,39.5
		c0,14.3,3.5,27.6,10.5,39.5c7,11.8,16.7,21.3,28.9,28.1c12.2,6.8,25.9,10.3,40.8,10.3c20,0,37.6-6.1,52.3-18.1l0.1,0L482.1,193.9
		L482.1,193.9z"/>
	<path class="SideBar__logo__lyrics is-visible" d="M632.5,85.6c-12.2-6.8-25.9-10.3-40.8-10.3s-28.6,3.5-40.8,10.3c-12.2,6.8-21.9,16.3-28.9,28.1
		c-7,11.8-10.5,25.1-10.5,39.5c0,14.3,3.5,27.6,10.5,39.5c7,11.8,16.7,21.3,28.9,28.1c12.2,6.8,25.9,10.3,40.8,10.3
		s28.6-3.5,40.8-10.3c12.2-6.8,21.9-16.3,28.9-28.1c7-11.8,10.5-25.1,10.5-39.5c0-14.3-3.5-27.6-10.5-39.5
		C654.4,101.9,644.7,92.4,632.5,85.6z M630.2,192.6c-10.5,10.6-23.4,16-38.5,16c-15.1,0-28.1-5.4-38.5-16
		c-10.5-10.6-15.8-23.9-15.8-39.4s5.3-28.8,15.8-39.4c10.5-10.6,23.4-16,38.5-16s28.1,5.4,38.5,16c10.5,10.6,15.8,23.9,15.8,39.4
		S640.7,181.9,630.2,192.6z"/>
	<path class="SideBar__logo__lyrics is-visible" d="M785.7,229.4h27.5L779,167l0.7-0.3c16.4-7.1,25.5-22.3,25.5-42.7c0-29.1-18.4-47.1-47.9-47.1h-61.6v152.5h24.4
		v-58.2h33.5L785.7,229.4z M719.9,149.4v-51h34.3c12.6,0,26,6.7,26,25.6c0,18.7-13.4,25.4-26,25.4H719.9z"/>
	<path class="st1" d="M316.4,75.2l-64.1-63.9c-3.9-3.9-10.3-3.9-14.3,0L148,101.5L86.1,39.6c-3.9-3.9-10.3-3.9-14.3,0L7.8,103.5
		c-4,3.9-4,10.3,0,14.3l67.6,67.6c0,0,0.1,0.1,0.1,0.1l66.7,66.7c1.6,1.6,3.7,2.4,5.8,2.4c2.1,0,4.2-0.8,5.8-2.4l66.7-66.7
		c0,0,0.1-0.1,0.1-0.1l95.9-95.9C320.4,85.6,320.4,79.2,316.4,75.2z"/>
	<path class="st2" d="M316.4,75.2l-64.1-63.9c-3.9-3.9-10.3-3.9-14.3,0L148,101.5c21,22.8,50.9,37.3,83.7,37.3
		c16.1,0,32.9-5.8,48.4-15.5c4.5-2.8,8.7-6.2,12.5-10l23.8-23.8C320.4,85.6,320.4,79.2,316.4,75.2z"/>
	<path class="st4" d="M316.4,75.2l-64.1-63.9c-3.9-3.9-10.3-3.9-14.3,0L148,101.5c21,22.8,50.9,37.3,83.7,37.3
		c16.1,0,32.9-5.8,48.4-15.5c4.5-2.8,8.7-6.2,12.5-10l23.8-23.8C320.4,85.6,320.4,79.2,316.4,75.2z"/>

</svg>
